# Blender v2.80 (sub 75) OBJ File: ''
# www.blender.org
o Grid
v 1.000000 -0.000000 0.000000
v 0.888889 -0.000000 0.000000
v 0.777778 -0.000000 0.000000
v 0.666667 -0.000000 0.000000
v 0.555555 -0.000000 0.000000
v 0.444444 -0.000000 0.000000
v 0.333333 -0.000000 0.000000
v 0.222222 -0.000000 0.000000
v 0.111111 -0.000000 0.000000
v 0.000000 -0.000000 0.000000
v 1.000000 -0.111111 0.000000
v 0.888889 -0.111111 0.000000
v 0.777778 -0.111111 0.000000
v 0.666667 -0.111111 0.000000
v 0.555555 -0.111111 0.000000
v 0.444444 -0.111111 0.000000
v 0.333333 -0.111111 0.000000
v 0.222222 -0.111111 0.000000
v 0.111111 -0.111111 0.000000
v 0.000000 -0.111111 0.000000
v 1.000000 -0.055556 0.000000
v 0.944444 -0.000000 0.000000
v 0.888889 -0.055556 0.000000
v 0.944444 -0.111111 0.000000
v 0.833333 -0.000000 0.000000
v 0.777778 -0.055556 0.000000
v 0.833333 -0.111111 0.000000
v 0.722222 -0.000000 0.000000
v 0.666667 -0.055556 0.000000
v 0.722222 -0.111111 0.000000
v 0.611111 -0.000000 0.000000
v 0.555555 -0.055556 0.000000
v 0.611111 -0.111111 0.000000
v 0.500000 -0.000000 0.000000
v 0.444444 -0.055556 0.000000
v 0.500000 -0.111111 0.000000
v 0.388889 -0.000000 0.000000
v 0.333333 -0.055556 0.000000
v 0.388889 -0.111111 0.000000
v 0.277778 -0.000000 0.000000
v 0.222222 -0.055556 0.000000
v 0.277778 -0.111111 0.000000
v 0.166667 -0.000000 0.000000
v 0.111111 -0.055556 0.000000
v 0.166667 -0.111111 0.000000
v 0.055556 -0.000000 0.000000
v 0.000000 -0.055556 0.000000
v 0.055556 -0.111111 0.000000
v 1.000000 -0.166667 0.000000
v 0.888889 -0.166667 0.000000
v 0.777778 -0.166667 0.000000
v 0.666667 -0.166667 0.000000
v 0.555555 -0.166667 0.000000
v 0.444444 -0.166667 0.000000
v 0.333333 -0.166667 0.000000
v 0.222222 -0.166667 0.000000
v 0.111111 -0.166667 0.000000
v 0.000000 -0.166667 0.000000
v 0.055556 -0.166667 0.000000
v 0.166667 -0.166667 0.000000
v 0.277778 -0.166667 0.000000
v 0.388889 -0.166667 0.000000
v 0.500000 -0.166667 0.000000
v 0.611111 -0.166667 0.000000
v 0.722222 -0.166667 0.000000
v 0.833333 -0.166667 0.000000
v 0.944444 -0.166667 0.000000
v 0.055556 -0.055556 0.000000
v 0.166667 -0.055556 0.000000
v 0.277778 -0.055556 0.000000
v 0.388889 -0.055556 0.000000
v 0.500000 -0.055556 0.000000
v 0.611111 -0.055556 0.000000
v 0.722222 -0.055556 0.000000
v 0.833333 -0.055556 0.000000
v 0.944444 -0.055556 0.000000
vt 0.111143 0.111143
vt 0.055592 0.055592
vt 0.111143 0.055592
vt 0.111143 0.222245
vt 0.055592 0.166694
vt 0.111143 0.166694
vt 0.111143 0.333347
vt 0.055592 0.277796
vt 0.111143 0.277796
vt 0.111143 0.444449
vt 0.055592 0.388898
vt 0.111143 0.388898
vt 0.111143 0.555551
vt 0.055592 0.500000
vt 0.111143 0.500000
vt 0.111143 0.666653
vt 0.055592 0.611102
vt 0.111143 0.611102
vt 0.111143 0.777755
vt 0.055592 0.722204
vt 0.111143 0.722204
vt 0.111143 0.888857
vt 0.055592 0.833306
vt 0.111143 0.833306
vt 0.111143 0.999959
vt 0.055592 0.944408
vt 0.111143 0.944408
vt 0.000041 0.888857
vt 0.055592 0.888857
vt 0.055592 0.999959
vt 0.000041 0.944408
vt 0.000041 0.777755
vt 0.055592 0.777755
vt 0.000041 0.833306
vt 0.000041 0.666653
vt 0.055592 0.666653
vt 0.000041 0.722204
vt 0.000041 0.555551
vt 0.055592 0.555551
vt 0.000041 0.611102
vt 0.000041 0.444449
vt 0.055592 0.444449
vt 0.000041 0.500000
vt 0.000041 0.333347
vt 0.055592 0.333347
vt 0.000041 0.388898
vt 0.000041 0.222245
vt 0.055592 0.222245
vt 0.000041 0.277796
vt 0.000041 0.111143
vt 0.055592 0.111143
vt 0.000041 0.166694
vt 0.000041 0.000041
vt 0.055592 0.000041
vt 0.000041 0.055592
vt 0.166694 0.944408
vt 0.166694 0.888857
vt 0.166694 0.999959
vt 0.166694 0.833306
vt 0.166694 0.777755
vt 0.166694 0.722204
vt 0.166694 0.666653
vt 0.166694 0.611102
vt 0.166694 0.555551
vt 0.166694 0.500000
vt 0.166694 0.444449
vt 0.166694 0.388898
vt 0.166694 0.333347
vt 0.166694 0.277796
vt 0.166694 0.222245
vt 0.166694 0.166694
vt 0.166694 0.111143
vt 0.111143 0.000041
vt 0.166694 0.055592
vt 0.166694 0.000041
vt 0.000041 0.999959
vn 0.0000 0.0000 1.0000
s off
f 23/1/1 24/2/1 76/3/1
f 26/4/1 27/5/1 75/6/1
f 29/7/1 30/8/1 74/9/1
f 32/10/1 33/11/1 73/12/1
f 35/13/1 36/14/1 72/15/1
f 38/16/1 39/17/1 71/18/1
f 41/19/1 42/20/1 70/21/1
f 44/22/1 45/23/1 69/24/1
f 47/25/1 48/26/1 68/27/1
f 48/26/1 57/28/1 19/29/1
f 20/30/1 59/31/1 48/26/1
f 45/23/1 56/32/1 18/33/1
f 19/29/1 60/34/1 45/23/1
f 42/20/1 55/35/1 17/36/1
f 18/33/1 61/37/1 42/20/1
f 39/17/1 54/38/1 16/39/1
f 17/36/1 62/40/1 39/17/1
f 36/14/1 53/41/1 15/42/1
f 16/39/1 63/43/1 36/14/1
f 33/11/1 52/44/1 14/45/1
f 15/42/1 64/46/1 33/11/1
f 30/8/1 51/47/1 13/48/1
f 14/45/1 65/49/1 30/8/1
f 27/5/1 50/50/1 12/51/1
f 13/48/1 66/52/1 27/5/1
f 24/2/1 49/53/1 11/54/1
f 12/51/1 67/55/1 24/2/1
f 68/27/1 19/29/1 44/22/1
f 46/56/1 44/22/1 9/57/1
f 10/58/1 68/27/1 46/56/1
f 69/24/1 18/33/1 41/19/1
f 43/59/1 41/19/1 8/60/1
f 9/57/1 69/24/1 43/59/1
f 70/21/1 17/36/1 38/16/1
f 40/61/1 38/16/1 7/62/1
f 8/60/1 70/21/1 40/61/1
f 71/18/1 16/39/1 35/13/1
f 37/63/1 35/13/1 6/64/1
f 7/62/1 71/18/1 37/63/1
f 72/15/1 15/42/1 32/10/1
f 34/65/1 32/10/1 5/66/1
f 6/64/1 72/15/1 34/65/1
f 73/12/1 14/45/1 29/7/1
f 31/67/1 29/7/1 4/68/1
f 5/66/1 73/12/1 31/67/1
f 74/9/1 13/48/1 26/4/1
f 28/69/1 26/4/1 3/70/1
f 4/68/1 74/9/1 28/69/1
f 75/6/1 12/51/1 23/1/1
f 25/71/1 23/1/1 2/72/1
f 3/70/1 75/6/1 25/71/1
f 76/3/1 11/54/1 21/73/1
f 22/74/1 21/73/1 1/75/1
f 2/72/1 76/3/1 22/74/1
f 23/1/1 12/51/1 24/2/1
f 26/4/1 13/48/1 27/5/1
f 29/7/1 14/45/1 30/8/1
f 32/10/1 15/42/1 33/11/1
f 35/13/1 16/39/1 36/14/1
f 38/16/1 17/36/1 39/17/1
f 41/19/1 18/33/1 42/20/1
f 44/22/1 19/29/1 45/23/1
f 47/25/1 20/30/1 48/26/1
f 48/26/1 59/31/1 57/28/1
f 20/30/1 58/76/1 59/31/1
f 45/23/1 60/34/1 56/32/1
f 19/29/1 57/28/1 60/34/1
f 42/20/1 61/37/1 55/35/1
f 18/33/1 56/32/1 61/37/1
f 39/17/1 62/40/1 54/38/1
f 17/36/1 55/35/1 62/40/1
f 36/14/1 63/43/1 53/41/1
f 16/39/1 54/38/1 63/43/1
f 33/11/1 64/46/1 52/44/1
f 15/42/1 53/41/1 64/46/1
f 30/8/1 65/49/1 51/47/1
f 14/45/1 52/44/1 65/49/1
f 27/5/1 66/52/1 50/50/1
f 13/48/1 51/47/1 66/52/1
f 24/2/1 67/55/1 49/53/1
f 12/51/1 50/50/1 67/55/1
f 68/27/1 48/26/1 19/29/1
f 46/56/1 68/27/1 44/22/1
f 10/58/1 47/25/1 68/27/1
f 69/24/1 45/23/1 18/33/1
f 43/59/1 69/24/1 41/19/1
f 9/57/1 44/22/1 69/24/1
f 70/21/1 42/20/1 17/36/1
f 40/61/1 70/21/1 38/16/1
f 8/60/1 41/19/1 70/21/1
f 71/18/1 39/17/1 16/39/1
f 37/63/1 71/18/1 35/13/1
f 7/62/1 38/16/1 71/18/1
f 72/15/1 36/14/1 15/42/1
f 34/65/1 72/15/1 32/10/1
f 6/64/1 35/13/1 72/15/1
f 73/12/1 33/11/1 14/45/1
f 31/67/1 73/12/1 29/7/1
f 5/66/1 32/10/1 73/12/1
f 74/9/1 30/8/1 13/48/1
f 28/69/1 74/9/1 26/4/1
f 4/68/1 29/7/1 74/9/1
f 75/6/1 27/5/1 12/51/1
f 25/71/1 75/6/1 23/1/1
f 3/70/1 26/4/1 75/6/1
f 76/3/1 24/2/1 11/54/1
f 22/74/1 76/3/1 21/73/1
f 2/72/1 23/1/1 76/3/1
