# Blender v2.81 (sub 16) OBJ File: ''
# www.blender.org
o Text.000_Text.013
v 0.857818 -0.000001 -0.143350
v 0.886012 -0.000001 -0.176019
v 0.916564 -0.000001 -0.099790
v -0.242822 -0.000001 -0.054088
v -0.248920 -0.000001 -0.126984
v -0.214512 -0.000001 -0.069066
v -0.289430 -0.000001 -0.153548
v -0.281926 -0.000001 -0.077771
v -0.892324 -0.000001 -0.174321
v -0.924427 -0.000001 -0.230468
v -0.858678 -0.000001 -0.230468
v -0.543364 -0.000001 -0.147709
v -0.543364 -0.000001 -0.230468
v -0.483382 -0.000001 -0.139473
v 0.191316 -0.000001 0.000942
v 0.137449 -0.000001 0.033941
v 0.090691 -0.000001 -0.022071
v 0.359978 -0.000001 0.033960
v 0.307827 -0.000001 0.114427
v 0.299803 -0.000001 0.025223
v 0.299803 -0.000001 0.232352
v 0.239628 -0.000001 0.232352
v 0.271722 -0.000001 0.173945
v 0.141003 -0.000001 -0.065540
v -0.918996 -0.000001 0.139803
v -0.830738 -0.000001 0.152143
v -0.858820 -0.000001 0.232352
v -0.423014 -0.000001 -0.230468
v -0.423014 -0.000001 -0.114763
v -0.918996 -0.000001 -0.137847
v -0.990177 -0.000001 -0.137847
v -0.543364 -0.000001 0.037962
v -0.579384 -0.000001 -0.064951
v -0.536923 -0.000001 -0.014147
v -0.670179 -0.000001 0.163042
v -0.699734 -0.000001 0.232352
v -0.699734 -0.000001 0.116648
v -0.645938 -0.000001 0.067100
v -0.699734 -0.000001 0.000942
v -0.639559 -0.000001 -0.035202
v -0.332646 -0.000001 0.168942
v -0.402146 -0.000001 0.232352
v -0.386852 -0.000001 0.116648
v -0.033340 -0.000001 -0.160310
v -0.077400 -0.000001 -0.230468
v 0.023226 -0.000001 -0.230468
v 0.475095 -0.000001 0.193946
v 0.532929 -0.000001 0.232352
v 0.470753 -0.000001 0.232352
v 0.239628 -0.000001 0.116648
v 0.239628 -0.000001 0.000942
v 0.299803 -0.000001 -0.076260
v 0.359978 -0.000001 -0.050657
v -0.211567 -0.000001 -0.141978
v -0.158264 -0.000001 -0.172616
v -0.149652 -0.000001 -0.114763
v 0.269716 -0.000001 -0.162990
v 0.239628 -0.000001 -0.230468
v 0.299803 -0.000001 -0.230468
v -0.579384 -0.000001 0.135157
v -0.639559 -0.000001 0.232352
v 0.153582 -0.000001 -0.160310
v 0.191316 -0.000001 -0.114763
v 0.970593 -0.000001 -0.056232
v 0.965876 -0.000001 0.030887
v 0.916564 -0.000001 0.030887
v -0.483190 -0.000001 0.130529
v -0.423014 -0.000001 0.116648
v -0.423014 -0.000001 0.232352
v -0.579384 -0.000001 0.037962
v -0.727178 -0.000001 -0.230468
v -0.727178 -0.000001 -0.137847
v -0.794357 -0.000001 -0.184158
v 0.090691 -0.000001 -0.126269
v -0.184658 -0.000001 0.047031
v -0.115206 -0.000001 0.116648
v -0.167546 -0.000001 0.168166
v -0.866844 -0.000001 0.096613
v -0.699734 -0.000001 -0.230468
v -0.639559 -0.000001 -0.139473
v -0.699734 -0.000001 -0.114763
v 0.574558 -0.000001 0.202979
v 0.627540 -0.000001 0.184256
v 0.597293 -0.000001 0.220658
v 0.526354 -0.000001 -0.230468
v 0.491907 -0.000001 -0.125983
v 0.456156 -0.000001 -0.179542
v 0.862535 -0.000001 -0.056232
v -0.356264 -0.000001 -0.114763
v -0.340970 -0.000001 -0.230468
v -0.001787 -0.000001 -0.065540
v -0.077400 -0.000001 -0.114763
v -0.077400 -0.000001 0.000942
v 0.023226 -0.000001 0.021953
v 0.056959 -0.000001 -0.126269
v -0.423014 -0.000001 0.000942
v -0.481579 -0.000001 -0.048230
v 0.495194 -0.000001 0.105426
v 0.384278 -0.000001 0.133156
v 0.423983 -0.000001 0.045777
v 0.239628 -0.000001 -0.114763
v 0.359978 -0.000001 -0.140563
v 0.386707 -0.000001 -0.140563
v 0.413436 -0.000001 -0.230468
v 0.424013 -0.000001 -0.084676
v 0.457459 -0.000001 -0.021498
v 0.191316 -0.000001 -0.230468
v -0.259593 -0.000001 -0.046465
v 0.076474 -0.000001 0.040244
v 0.054528 -0.000001 0.127153
v -0.027087 -0.000001 0.066674
v 0.023226 -0.000001 0.127153
v -0.039665 -0.000001 0.162006
v -0.253923 -0.000001 -0.230468
v -0.227194 -0.000001 0.149165
v -0.270361 -0.000001 0.149165
v -0.271790 -0.000001 0.067121
v -0.221192 -0.000001 0.232352
v -0.159586 -0.000001 0.232352
v -0.339827 -0.000001 0.232352
v -0.639559 -0.000001 -0.230468
v -0.579384 -0.000001 -0.147709
v -0.990177 -0.000001 -0.230468
v -0.277507 -0.000001 0.232352
v -0.294326 -0.000001 0.023945
v -0.268645 -0.000001 0.031941
v -0.141041 -0.000001 -0.056910
v -0.132430 -0.000001 0.000942
v 0.023226 -0.000001 0.232352
v 0.117281 -0.000001 0.127523
v 0.085832 -0.000001 0.232352
v 0.191316 -0.000001 0.116648
v 0.514061 -0.000001 0.168890
v -0.371558 -0.000001 0.000942
v -0.543364 -0.000001 -0.064951
v 0.751389 -0.000001 0.054668
v 0.809522 -0.000001 0.039931
v 0.818217 -0.000001 0.092364
v -0.230625 -0.000001 0.067121
v -0.325140 -0.000001 0.083469
v -0.918996 -0.000001 -0.045297
v -0.858820 -0.000001 0.000978
v -0.918996 -0.000001 0.047253
v -0.106594 -0.000001 0.174500
v 0.408576 -0.000001 0.232352
v 0.794037 -0.000001 0.010162
v 0.680442 -0.000001 -0.007719
v 0.636985 -0.000001 0.030815
v 0.970593 -0.000001 0.232352
v 0.862535 -0.000001 0.232352
v 0.862535 -0.000001 0.139731
v 0.191316 -0.000001 0.232352
v 0.770215 -0.000001 -0.013089
v 0.613871 -0.000001 -0.059165
v 0.594934 -0.000001 0.001674
v -0.798645 -0.000001 -0.045297
v -0.798645 -0.000001 0.047253
v 0.721856 -0.000001 -0.047512
v -0.483189 -0.000001 -0.230468
v 0.684099 -0.000001 -0.070936
v 0.660791 -0.000001 -0.095475
v -0.483189 -0.000001 0.232352
v 0.947116 -0.000001 -0.176019
v -0.481578 -0.000001 0.035352
v -0.918996 -0.000001 0.232352
v 0.961159 -0.000001 0.118005
v 0.975310 -0.000001 -0.143350
v -0.077400 -0.000001 0.232352
v -0.077400 -0.000001 0.116648
v 0.476327 -0.000001 0.041964
v -0.867196 -0.000001 -0.073488
v -0.798645 -0.000001 -0.137847
v 0.970593 -0.000001 0.139731
v 0.550442 -0.000001 -0.057788
v 0.544390 -0.000001 -0.092501
v 0.560012 -0.000001 0.181827
v 0.570547 -0.000001 -0.019712
v 0.668579 -0.000001 0.052424
v 0.696708 -0.000001 0.077817
v 0.701662 -0.000001 0.092491
v 0.871969 -0.000001 0.118005
v -0.166876 -0.000001 -0.230468
v 0.359978 -0.000001 -0.230468
v 0.359978 -0.000001 0.133156
v 0.359978 -0.000001 0.232352
v -0.097982 -0.000001 0.232352
v -0.235199 -0.000001 0.025509
v -0.579384 -0.000001 -0.230468
v -0.543364 -0.000001 0.232352
v -0.543364 -0.000001 0.135157
v -0.579384 -0.000001 0.232352
v -0.798645 -0.000001 0.139803
v -0.798645 -0.000001 0.232352
v -0.792928 -0.000001 -0.230468
v 0.090691 -0.000001 -0.230468
v 0.853101 -0.000001 -0.230468
v 0.916564 -0.000001 -0.230468
v -0.123818 -0.000001 0.058795
v 0.980027 -0.000001 -0.230468
v 0.867251 -0.000001 0.030887
v 0.553458 -0.000001 0.161547
v 0.604508 -0.000001 -0.171229
v 0.664004 -0.000001 -0.155706
v 0.656579 -0.000001 -0.131875
v 0.716972 -0.000001 0.199216
v 0.693760 -0.000001 0.161881
v 0.702455 -0.000001 0.144861
v 0.739167 -0.000001 0.235020
v 0.699670 -0.000001 0.241631
v 0.673528 -0.000001 0.162918
v 0.806112 -0.000001 -0.155821
v 0.750663 -0.000001 -0.117992
v 0.745818 -0.000001 -0.171325
v 0.759433 -0.000001 0.110795
v 0.753596 -0.000001 0.168432
v 0.704449 -0.000001 0.126296
v 0.814857 -0.000001 0.162849
v 0.659283 -0.000001 0.066549
v 0.603665 -0.000001 0.093232
v 0.547508 -0.000001 0.066549
v 0.609916 -0.000001 0.145377
v 0.659283 -0.000001 0.122865
v 0.660462 -0.000001 0.144233
v 0.548683 -0.000001 0.128899
v 0.669586 -0.000001 0.241563
v 0.671257 -0.000001 0.196864
v 0.640884 -0.000001 -0.237780
v 0.674433 -0.000001 -0.240188
v 0.644477 -0.000001 -0.198079
v 0.730782 -0.000001 -0.233454
v 0.715317 -0.000001 -0.201174
v 0.764720 -0.000001 -0.219768
v 0.785267 -0.000001 -0.204686
v 0.801347 -0.000001 -0.178309
v 0.808494 -0.000001 -0.126186
v 0.808792 -0.000001 -0.108688
v 0.808792 -0.000001 -0.090393
v 0.697017 -0.000001 -0.090393
v 0.578903 -0.000001 -0.212908
v 0.606389 -0.000001 -0.228538
v 0.547186 -0.000001 -0.156142
v 0.559750 -0.000001 -0.191897
v 0.543792 -0.000001 -0.110118
v 0.604370 -0.000001 -0.116337
v 0.777713 -0.000001 0.217800
v 0.802760 -0.000001 0.194503
v 0.818716 -0.000001 0.122065
v 0.680063 -0.000001 -0.161814
v 0.689235 -0.000001 -0.158937
v 0.695558 -0.000001 -0.146778
v 0.697017 -0.000001 -0.124697
v 0.656817 -0.000001 -0.115263
v 0.547508 -0.000001 0.096851
v 0.627170 -0.000001 0.233940
vt 1.874220 0.388604
vt 1.933089 0.344953
vt 1.902472 0.421342
vt 0.771268 0.299155
vt 0.799638 0.314164
vt 0.765157 0.372204
vt 0.724563 0.398824
vt 0.732082 0.322888
vt 0.120403 0.419641
vt 0.154120 0.475905
vt 0.088233 0.475905
vt 0.470095 0.392973
vt 0.530203 0.384719
vt 0.470095 0.475905
vt 1.206318 0.244009
vt 1.105482 0.267070
vt 1.152338 0.210941
vt 1.375335 0.210922
vt 1.315033 0.219678
vt 1.323073 0.130286
vt 1.315033 0.012113
vt 1.286893 0.070643
vt 1.254732 0.012113
vt 1.155900 0.310631
vt 0.093675 0.104857
vt 0.153977 0.012113
vt 0.182118 0.092491
vt 0.590698 0.359957
vt 0.590698 0.475905
vt 0.093675 0.383090
vt 0.022345 0.383090
vt 0.470095 0.206912
vt 0.476550 0.259130
vt 0.434000 0.310041
vt 0.343015 0.081569
vt 0.313397 0.128061
vt 0.313397 0.012113
vt 0.367306 0.177712
vt 0.373698 0.280230
vt 0.313397 0.244009
vt 0.681256 0.075656
vt 0.626937 0.128061
vt 0.611610 0.012113
vt 0.981190 0.405599
vt 1.037875 0.475905
vt 0.937038 0.475905
vt 1.490692 0.050601
vt 1.486341 0.012113
vt 1.548648 0.012113
vt 1.254732 0.128061
vt 1.315033 0.321374
vt 1.254732 0.244009
vt 1.375335 0.295717
vt 0.802589 0.387229
vt 0.864634 0.359957
vt 0.856004 0.417932
vt 1.284883 0.408285
vt 1.315033 0.475905
vt 1.254732 0.475905
vt 0.434000 0.109512
vt 0.373698 0.012113
vt 1.206318 0.359957
vt 1.168504 0.405599
vt 1.987231 0.301303
vt 1.933089 0.214002
vt 1.982504 0.214002
vt 0.530396 0.114151
vt 0.590698 0.012113
vt 0.590698 0.128061
vt 0.434000 0.206912
vt 0.285896 0.475905
vt 0.218576 0.429498
vt 0.285896 0.383090
vt 1.105482 0.371488
vt 0.829555 0.197823
vt 0.846702 0.076434
vt 0.899153 0.128061
vt 0.145937 0.148138
vt 0.313397 0.475905
vt 0.313397 0.359957
vt 0.373698 0.384719
vt 1.590365 0.041548
vt 1.613148 0.023833
vt 1.643458 0.060310
vt 1.542060 0.475905
vt 1.471714 0.424873
vt 1.507540 0.371201
vt 1.878946 0.301303
vt 0.657588 0.359957
vt 0.672915 0.475905
vt 0.937038 0.359957
vt 1.012809 0.310631
vt 0.937038 0.244009
vt 1.037875 0.222954
vt 1.071679 0.371488
vt 0.532010 0.293284
vt 0.590698 0.244009
vt 1.510834 0.139305
vt 1.439474 0.199080
vt 1.399685 0.111518
vt 1.254732 0.359957
vt 1.375335 0.385811
vt 1.402119 0.385811
vt 1.428904 0.475905
vt 1.439504 0.329807
vt 1.473020 0.266497
vt 1.206318 0.475905
vt 0.754462 0.291516
vt 1.091235 0.204624
vt 1.069243 0.117534
vt 0.987457 0.178139
vt 0.974852 0.082607
vt 1.037875 0.117534
vt 0.760144 0.475905
vt 0.786929 0.095475
vt 0.742240 0.177692
vt 0.743672 0.095475
vt 0.792944 0.012113
vt 0.854679 0.012113
vt 0.674060 0.012113
vt 0.434000 0.392973
vt 0.373698 0.475905
vt 0.022345 0.475905
vt 0.736510 0.012113
vt 0.719657 0.220958
vt 0.745391 0.212946
vt 0.881893 0.244009
vt 0.873263 0.301983
vt 1.037875 0.012113
vt 1.100612 0.012113
vt 1.132128 0.117163
vt 1.206318 0.128061
vt 1.529741 0.075709
vt 0.642262 0.244009
vt 0.470095 0.310041
vt 1.767567 0.190171
vt 1.834536 0.152395
vt 1.825822 0.204938
vt 0.783492 0.177692
vt 0.688778 0.161309
vt 0.093675 0.290345
vt 0.093675 0.197602
vt 0.153977 0.243973
vt 0.907783 0.070087
vt 1.424035 0.012113
vt 1.810305 0.234770
vt 1.696471 0.252689
vt 1.652922 0.214074
vt 1.987231 0.012113
vt 1.878946 0.104929
vt 1.878946 0.012113
vt 1.206318 0.012113
vt 1.786433 0.258070
vt 1.629760 0.304242
vt 1.610784 0.243275
vt 0.214278 0.290345
vt 0.214278 0.197602
vt 1.737972 0.292565
vt 0.530397 0.475905
vt 1.700135 0.316038
vt 1.676779 0.340629
vt 0.530397 0.012113
vt 1.963705 0.421342
vt 0.532011 0.209528
vt 0.093675 0.012113
vt 1.977778 0.126701
vt 1.991958 0.388604
vt 0.937038 0.128061
vt 0.937038 0.012113
vt 1.491928 0.202901
vt 0.145584 0.318596
vt 0.214278 0.383090
vt 1.987231 0.104929
vt 1.566198 0.302863
vt 1.560134 0.337648
vt 1.575788 0.062745
vt 1.586345 0.264707
vt 1.684583 0.192419
vt 1.712771 0.166973
vt 1.717736 0.152268
vt 1.888400 0.126701
vt 0.847374 0.475905
vt 1.375335 0.475905
vt 1.375335 0.111518
vt 1.375335 0.012113
vt 0.916413 0.012113
vt 0.778908 0.219391
vt 0.434000 0.475905
vt 0.470095 0.109512
vt 0.470095 0.012113
vt 0.434000 0.012113
vt 0.214278 0.104857
vt 0.214278 0.012113
vt 0.220008 0.475905
vt 1.105482 0.475905
vt 1.933089 0.475905
vt 1.869492 0.475905
vt 0.890523 0.186035
vt 1.996684 0.475905
vt 1.883672 0.214002
vt 1.569220 0.083068
vt 1.620377 0.416542
vt 1.672558 0.377105
vt 1.679998 0.400986
vt 1.733077 0.045319
vt 1.718531 0.099789
vt 1.709817 0.082733
vt 1.715739 0.002815
vt 1.755319 0.009440
vt 1.689543 0.081693
vt 1.822405 0.401102
vt 1.761985 0.416638
vt 1.766839 0.363194
vt 1.775627 0.133926
vt 1.720529 0.118393
vt 1.769778 0.076168
vt 1.831168 0.081763
vt 1.675267 0.178265
vt 1.563258 0.178265
vt 1.619533 0.151526
vt 1.625798 0.099272
vt 1.676449 0.100417
vt 1.675267 0.121830
vt 1.564436 0.115783
vt 1.687267 0.047676
vt 1.685592 0.002883
vt 1.656829 0.483233
vt 1.660430 0.443449
vt 1.690450 0.485645
vt 1.731419 0.446549
vt 1.746916 0.478898
vt 1.780926 0.465183
vt 1.801517 0.450069
vt 1.817630 0.423636
vt 1.824792 0.371404
vt 1.825091 0.353870
vt 1.825091 0.335536
vt 1.713081 0.335536
vt 1.594719 0.458308
vt 1.622262 0.473971
vt 1.562936 0.401423
vt 1.575525 0.437253
vt 1.620239 0.361534
vt 1.559534 0.355302
vt 1.793946 0.026696
vt 1.819046 0.050042
vt 1.835036 0.122632
vt 1.696092 0.407107
vt 1.705282 0.404224
vt 1.711618 0.392040
vt 1.713081 0.369912
vt 1.672796 0.360458
vt 1.563258 0.147899
vt 1.643087 0.010522
vn 0.0000 1.0000 0.0000
s 1
f 1/1/1 3/2/1 2/3/1
f 4/4/1 6/5/1 5/6/1
f 7/7/1 8/8/1 5/6/1
f 9/9/1 11/10/1 10/11/1
f 12/12/1 14/13/1 13/14/1
f 15/15/1 17/16/1 16/17/1
f 18/18/1 20/19/1 19/20/1
f 21/21/1 23/22/1 22/23/1
f 15/15/1 24/24/1 17/16/1
f 25/25/1 27/26/1 26/27/1
f 14/13/1 29/28/1 28/29/1
f 30/30/1 9/9/1 31/31/1
f 32/32/1 34/33/1 33/34/1
f 35/35/1 37/36/1 36/37/1
f 38/38/1 37/36/1 35/35/1
f 38/38/1 40/39/1 39/40/1
f 41/41/1 43/42/1 42/43/1
f 44/44/1 46/45/1 45/46/1
f 47/47/1 49/48/1 48/49/1
f 23/22/1 50/50/1 22/23/1
f 20/19/1 50/50/1 19/20/1
f 20/19/1 52/51/1 51/52/1
f 52/51/1 20/19/1 53/53/1
f 54/54/1 56/55/1 55/56/1
f 57/57/1 59/58/1 58/59/1
f 60/60/1 35/35/1 61/61/1
f 24/24/1 63/62/1 62/63/1
f 64/64/1 66/65/1 65/66/1
f 67/67/1 69/68/1 68/69/1
f 40/39/1 38/38/1 70/70/1
f 71/71/1 73/72/1 72/73/1
f 62/63/1 74/74/1 24/24/1
f 75/75/1 77/76/1 76/77/1
f 25/25/1 26/27/1 78/78/1
f 79/79/1 81/80/1 80/81/1
f 82/82/1 84/83/1 83/84/1
f 85/85/1 87/86/1 86/87/1
f 88/88/1 3/2/1 1/1/1
f 89/89/1 7/7/1 90/90/1
f 44/44/1 92/91/1 91/92/1
f 92/91/1 44/44/1 45/46/1
f 93/93/1 94/94/1 91/92/1
f 44/44/1 91/92/1 95/95/1
f 29/28/1 97/96/1 96/97/1
f 98/98/1 100/99/1 99/100/1
f 57/57/1 101/101/1 52/51/1
f 101/101/1 57/57/1 58/59/1
f 57/57/1 52/51/1 102/102/1
f 103/103/1 87/86/1 104/104/1
f 86/87/1 87/86/1 105/105/1
f 85/85/1 104/104/1 87/86/1
f 103/103/1 105/105/1 87/86/1
f 106/106/1 53/53/1 18/18/1
f 62/63/1 63/62/1 107/107/1
f 8/8/1 108/108/1 5/6/1
f 109/109/1 94/94/1 110/110/1
f 111/111/1 113/112/1 112/113/1
f 7/7/1 54/54/1 114/114/1
f 64/64/1 3/2/1 88/88/1
f 115/115/1 117/116/1 116/117/1
f 118/118/1 119/119/1 77/76/1
f 41/41/1 42/43/1 120/120/1
f 80/81/1 122/121/1 121/122/1
f 32/32/1 33/34/1 70/70/1
f 9/9/1 10/11/1 123/123/1
f 124/124/1 116/117/1 41/41/1
f 24/24/1 15/15/1 63/62/1
f 125/125/1 117/116/1 126/126/1
f 6/5/1 128/127/1 127/128/1
f 8/8/1 7/7/1 89/89/1
f 125/125/1 126/126/1 108/108/1
f 16/17/1 17/16/1 109/109/1
f 129/129/1 112/113/1 113/112/1
f 110/110/1 131/130/1 130/131/1
f 17/16/1 95/95/1 91/92/1
f 16/17/1 132/132/1 15/15/1
f 47/47/1 133/133/1 98/98/1
f 18/18/1 53/53/1 20/19/1
f 53/53/1 106/106/1 105/105/1
f 106/106/1 86/87/1 105/105/1
f 8/8/1 134/134/1 125/125/1
f 135/135/1 34/33/1 97/96/1
f 75/75/1 115/115/1 77/76/1
f 136/136/1 138/137/1 137/138/1
f 115/115/1 75/75/1 139/139/1
f 134/134/1 43/42/1 140/140/1
f 141/141/1 143/142/1 142/143/1
f 76/77/1 77/76/1 144/144/1
f 49/48/1 47/47/1 145/145/1
f 146/146/1 136/136/1 137/138/1
f 147/147/1 148/148/1 136/136/1
f 149/149/1 151/150/1 150/151/1
f 48/49/1 133/133/1 47/47/1
f 130/131/1 131/130/1 152/152/1
f 153/153/1 147/147/1 146/146/1
f 154/154/1 155/155/1 147/147/1
f 156/156/1 142/143/1 157/157/1
f 116/117/1 140/140/1 41/41/1
f 158/158/1 154/154/1 147/147/1
f 14/13/1 28/29/1 159/159/1
f 154/154/1 158/158/1 160/160/1
f 161/161/1 154/154/1 160/160/1
f 67/67/1 162/162/1 69/68/1
f 163/163/1 2/3/1 3/2/1
f 68/69/1 164/164/1 67/67/1
f 25/25/1 165/165/1 27/26/1
f 135/135/1 14/13/1 12/12/1
f 157/157/1 78/78/1 26/27/1
f 14/13/1 97/96/1 29/28/1
f 75/75/1 128/127/1 6/5/1
f 135/135/1 97/96/1 14/13/1
f 65/66/1 66/65/1 166/166/1
f 3/2/1 64/64/1 167/167/1
f 68/69/1 96/97/1 164/164/1
f 146/146/1 147/147/1 136/136/1
f 130/131/1 152/152/1 132/132/1
f 6/5/1 56/55/1 54/54/1
f 57/57/1 102/102/1 59/58/1
f 113/112/1 169/168/1 168/169/1
f 106/106/1 100/99/1 170/170/1
f 167/167/1 163/163/1 3/2/1
f 171/171/1 172/172/1 9/9/1
f 6/5/1 127/128/1 56/55/1
f 40/39/1 70/70/1 33/34/1
f 100/99/1 18/18/1 99/100/1
f 158/158/1 147/147/1 153/153/1
f 149/149/1 173/173/1 151/150/1
f 174/174/1 154/154/1 175/175/1
f 82/82/1 83/84/1 176/176/1
f 8/8/1 89/89/1 134/134/1
f 141/141/1 142/143/1 171/171/1
f 155/155/1 154/154/1 177/177/1
f 148/148/1 147/147/1 155/155/1
f 178/178/1 136/136/1 148/148/1
f 179/179/1 136/136/1 178/178/1
f 179/179/1 180/180/1 136/136/1
f 110/110/1 130/131/1 109/109/1
f 177/177/1 154/154/1 174/174/1
f 181/181/1 166/166/1 66/65/1
f 54/54/1 55/56/1 182/182/1
f 140/140/1 116/117/1 117/116/1
f 75/75/1 6/5/1 4/4/1
f 81/80/1 40/39/1 80/81/1
f 164/164/1 32/32/1 67/67/1
f 102/102/1 52/51/1 53/53/1
f 59/58/1 102/102/1 183/183/1
f 101/101/1 51/52/1 52/51/1
f 50/50/1 20/19/1 51/52/1
f 100/99/1 98/98/1 170/170/1
f 99/100/1 145/145/1 47/47/1
f 184/184/1 21/21/1 185/185/1
f 184/184/1 19/20/1 23/22/1
f 19/20/1 184/184/1 18/18/1
f 132/132/1 16/17/1 130/131/1
f 79/79/1 80/81/1 121/122/1
f 17/16/1 24/24/1 74/74/1
f 94/94/1 17/16/1 91/92/1
f 111/111/1 93/93/1 169/168/1
f 94/94/1 109/109/1 17/16/1
f 77/76/1 186/186/1 144/144/1
f 54/54/1 7/7/1 5/6/1
f 7/7/1 114/114/1 90/90/1
f 114/114/1 54/54/1 182/182/1
f 93/93/1 91/92/1 92/91/1
f 4/4/1 187/187/1 75/75/1
f 139/139/1 75/75/1 187/187/1
f 139/139/1 117/116/1 115/115/1
f 118/118/1 77/76/1 115/115/1
f 122/121/1 80/81/1 33/34/1
f 121/122/1 122/121/1 188/188/1
f 81/80/1 39/40/1 40/39/1
f 37/36/1 38/38/1 39/40/1
f 164/164/1 34/33/1 32/32/1
f 162/162/1 190/189/1 189/190/1
f 190/189/1 67/67/1 32/32/1
f 60/60/1 61/61/1 191/191/1
f 60/60/1 38/38/1 35/35/1
f 38/38/1 60/60/1 70/70/1
f 73/72/1 9/9/1 172/172/1
f 192/192/1 26/27/1 193/193/1
f 156/156/1 171/171/1 142/143/1
f 30/30/1 171/171/1 9/9/1
f 77/76/1 119/119/1 186/186/1
f 141/141/1 171/171/1 30/30/1
f 73/72/1 71/71/1 194/194/1
f 67/67/1 190/189/1 162/162/1
f 124/124/1 41/41/1 120/120/1
f 111/111/1 112/113/1 94/94/1
f 44/44/1 95/95/1 46/45/1
f 97/96/1 34/33/1 96/97/1
f 108/108/1 8/8/1 125/125/1
f 184/184/1 23/22/1 21/21/1
f 129/129/1 113/112/1 168/169/1
f 53/53/1 105/105/1 103/103/1
f 106/106/1 18/18/1 100/99/1
f 171/171/1 156/156/1 172/172/1
f 143/142/1 78/78/1 142/143/1
f 62/63/1 195/195/1 74/74/1
f 2/3/1 197/196/1 196/197/1
f 94/94/1 93/93/1 111/111/1
f 113/112/1 111/111/1 169/168/1
f 1/1/1 2/3/1 196/197/1
f 75/75/1 198/198/1 128/127/1
f 163/163/1 197/196/1 2/3/1
f 167/167/1 199/199/1 163/163/1
f 19/20/1 50/50/1 23/22/1
f 195/195/1 62/63/1 107/107/1
f 130/131/1 16/17/1 109/109/1
f 14/13/1 159/159/1 13/14/1
f 54/54/1 5/6/1 6/5/1
f 34/33/1 135/135/1 33/34/1
f 163/163/1 199/199/1 197/196/1
f 43/42/1 41/41/1 140/140/1
f 73/72/1 172/172/1 72/73/1
f 26/27/1 27/26/1 193/193/1
f 140/140/1 117/116/1 125/125/1
f 134/134/1 140/140/1 125/125/1
f 64/64/1 88/88/1 66/65/1
f 76/77/1 198/198/1 75/75/1
f 164/164/1 96/97/1 34/33/1
f 123/123/1 31/31/1 9/9/1
f 157/157/1 142/143/1 78/78/1
f 25/25/1 78/78/1 143/142/1
f 11/10/1 9/9/1 73/72/1
f 181/181/1 66/65/1 200/200/1
f 88/88/1 200/200/1 66/65/1
f 80/81/1 40/39/1 33/34/1
f 61/61/1 35/35/1 36/37/1
f 157/157/1 26/27/1 192/192/1
f 98/98/1 99/100/1 47/47/1
f 11/10/1 73/72/1 194/194/1
f 176/176/1 83/84/1 201/201/1
f 202/202/1 204/203/1 203/204/1
f 205/205/1 207/206/1 206/207/1
f 205/205/1 209/208/1 208/209/1
f 210/210/1 205/205/1 206/207/1
f 211/211/1 213/212/1 212/213/1
f 214/214/1 216/215/1 215/216/1
f 215/216/1 217/217/1 214/214/1
f 218/218/1 220/219/1 219/220/1
f 221/221/1 223/222/1 222/223/1
f 201/201/1 221/221/1 224/224/1
f 209/208/1 226/225/1 225/226/1
f 210/210/1 83/84/1 226/225/1
f 227/227/1 229/228/1 228/229/1
f 228/229/1 231/230/1 230/231/1
f 230/231/1 231/230/1 232/232/1
f 232/232/1 213/212/1 233/233/1
f 231/230/1 213/212/1 232/232/1
f 233/233/1 213/212/1 234/234/1
f 234/234/1 213/212/1 211/211/1
f 211/211/1 212/213/1 235/235/1
f 235/235/1 212/213/1 236/236/1
f 236/236/1 212/213/1 237/237/1
f 237/237/1 212/213/1 238/238/1
f 228/229/1 229/228/1 231/230/1
f 239/239/1 202/202/1 240/240/1
f 240/240/1 229/228/1 227/227/1
f 241/241/1 202/202/1 242/242/1
f 242/242/1 202/202/1 239/239/1
f 175/175/1 244/243/1 243/244/1
f 243/244/1 244/243/1 241/241/1
f 244/243/1 175/175/1 154/154/1
f 202/202/1 241/241/1 244/243/1
f 240/240/1 202/202/1 229/228/1
f 215/216/1 207/206/1 205/205/1
f 216/215/1 214/214/1 180/180/1
f 180/180/1 214/214/1 136/136/1
f 215/216/1 216/215/1 207/206/1
f 245/245/1 205/205/1 208/209/1
f 245/245/1 215/216/1 205/205/1
f 217/217/1 215/216/1 246/246/1
f 246/246/1 215/216/1 245/245/1
f 138/137/1 214/214/1 247/247/1
f 247/247/1 214/214/1 217/217/1
f 214/214/1 138/137/1 136/136/1
f 161/161/1 244/243/1 154/154/1
f 244/243/1 204/203/1 202/202/1
f 202/202/1 203/204/1 229/228/1
f 248/248/1 229/228/1 203/204/1
f 229/228/1 248/248/1 231/230/1
f 231/230/1 249/249/1 213/212/1
f 213/212/1 250/250/1 212/213/1
f 212/213/1 251/251/1 238/238/1
f 212/213/1 250/250/1 251/251/1
f 252/252/1 244/243/1 161/161/1
f 204/203/1 244/243/1 252/252/1
f 213/212/1 249/249/1 250/250/1
f 231/230/1 248/248/1 249/249/1
f 221/221/1 222/223/1 219/220/1
f 219/220/1 222/223/1 218/218/1
f 83/84/1 223/222/1 221/221/1
f 253/253/1 219/220/1 220/219/1
f 221/221/1 201/201/1 83/84/1
f 253/253/1 224/224/1 219/220/1
f 219/220/1 224/224/1 221/221/1
f 225/226/1 226/225/1 254/254/1
f 254/254/1 83/84/1 84/83/1
f 226/225/1 83/84/1 254/254/1
f 226/225/1 209/208/1 205/205/1
f 210/210/1 226/225/1 205/205/1
f 83/84/1 210/210/1 223/222/1
